<?xml version="1.0" standalone="no"?>
<!DOCTYPE svg PUBLIC "-//W3C//DTD SVG 20010904//EN"
 "http://www.w3.org/TR/2001/REC-SVG-20010904/DTD/svg10.dtd">
<svg version="1.0" xmlns="http://www.w3.org/2000/svg"
 width="1280.000000pt" height="640.000000pt" viewBox="0 0 1280.000000 640.000000"
 preserveAspectRatio="xMidYMid meet">
<metadata>
Created by potrace 1.15, written by Peter Selinger 2001-2017
</metadata>
<g transform="translate(0.000000,640.000000) scale(0.100000,-0.100000)"
fill="#ff5722" stroke="none">
<path d="M5872 5174 c-26 -18 -29 -39 -6 -48 24 -9 52 2 59 24 12 39 -14 51
-53 24z"/>
<path d="M7172 5174 c-27 -19 -28 -41 -2 -49 29 -9 60 12 60 40 0 29 -24 33
-58 9z"/>
<path d="M5674 5043 c11 -44 50 -117 65 -121 20 -7 7 51 -25 105 -28 49 -50
57 -40 16z"/>
<path d="M10599 4962 c-29 -15 -54 -33 -57 -40 -7 -21 40 -13 92 16 93 51 60
74 -35 24z"/>
<path d="M5870 4779 c-74 -65 -162 -138 -195 -160 l-60 -41 -5 54 -5 53 -49
-93 c-90 -172 -256 -318 -491 -432 -251 -122 -517 -179 -733 -158 -289 29
-1083 323 -1234 458 -43 38 -43 38 -24 59 11 12 16 24 12 28 -4 4 -62 10 -128
13 l-122 5 55 29 c98 52 209 120 209 127 0 9 -42 -2 -199 -52 -168 -54 -204
-58 -267 -26 -61 30 -350 130 -365 125 -6 -2 25 -29 68 -60 78 -55 124 -98
107 -98 -5 0 -52 14 -104 30 -118 38 -128 37 -63 0 56 -32 108 -97 98 -122
-42 -108 -923 -501 -1425 -635 -117 -31 -149 -36 -237 -35 -95 1 -104 0 -132
-23 -35 -30 -52 -31 -110 -5 -61 28 -73 26 -64 -7 15 -60 13 -64 -62 -83 -38
-10 -99 -32 -135 -49 l-65 -30 60 -1 c33 -1 78 -5 100 -9 51 -10 43 -14 -139
-61 -78 -20 -141 -40 -141 -45 0 -5 23 -15 50 -22 80 -22 229 -11 350 26 130
40 187 40 312 0 151 -48 397 -147 445 -179 52 -36 58 -36 133 -5 55 23 175 36
175 19 0 -3 -12 -15 -26 -26 -19 -15 -24 -27 -20 -43 3 -13 0 -27 -7 -33 -49
-41 -279 -56 -391 -25 -86 23 -250 23 -343 -1 -72 -18 -72 -18 -51 -36 20 -15
21 -21 10 -44 -14 -32 -5 -33 50 -5 23 12 60 21 85 21 43 0 93 -23 93 -43 0
-15 -116 -66 -199 -87 -80 -21 -94 -34 -89 -84 6 -61 57 -68 238 -31 85 17
130 37 130 58 0 10 10 15 28 15 34 0 303 -44 675 -110 153 -28 287 -50 297
-50 41 0 17 -18 -77 -60 -134 -59 -206 -77 -358 -90 -142 -12 -232 -27 -240
-40 -9 -15 35 -58 71 -70 20 -7 56 -10 79 -7 49 7 67 -6 86 -64 15 -43 27 -59
46 -59 9 0 52 23 98 50 46 28 86 50 89 50 4 0 -9 -21 -29 -46 -19 -26 -35 -53
-35 -60 0 -21 31 -16 75 11 135 83 176 92 465 105 118 5 233 14 255 20 58 18
138 61 244 135 137 95 144 89 36 -31 -79 -88 -207 -194 -235 -194 -10 0 -22 9
-25 20 -8 26 -39 26 -76 -1 -37 -26 -98 -35 -140 -20 -18 6 -34 9 -37 6 -3 -2
7 -22 22 -44 15 -22 26 -48 24 -57 -2 -10 -28 -37 -58 -62 -99 -78 -126 -106
-108 -110 23 -4 42 7 140 81 150 115 212 139 265 102 35 -25 35 -51 -3 -96
-34 -41 -45 -79 -21 -79 7 0 39 27 71 59 65 66 119 94 211 110 63 11 276 31
334 31 l33 0 -69 -77 c-101 -112 -114 -143 -63 -143 43 0 131 31 299 107 181
81 250 105 279 98 36 -9 33 -39 -19 -243 -21 -84 -39 -167 -39 -185 1 -30 2
-31 15 -13 8 11 22 44 31 75 54 187 210 380 370 457 146 70 162 27 45 -113
-28 -34 -51 -64 -51 -67 0 -4 18 6 41 21 48 32 59 23 59 -44 0 -52 12 -55 29
-7 17 47 68 104 93 104 31 0 73 53 93 115 22 70 46 97 107 119 175 64 524 403
554 538 5 26 2 35 -16 50 -31 25 -69 23 -137 -8 -185 -83 -241 -88 -264 -26
-13 33 5 157 28 191 14 21 20 23 67 18 148 -15 425 -155 665 -335 41 -31 129
-108 196 -171 129 -122 228 -201 252 -201 18 0 -8 37 -93 135 -71 82 -120 176
-139 264 -27 128 -104 294 -170 365 l-28 30 -19 -27 c-32 -44 -63 -39 -383 61
-278 87 -458 123 -705 142 -248 18 -445 66 -945 227 -238 76 -533 163 -556
163 -26 0 -24 -32 3 -57 32 -29 74 -48 138 -63 84 -19 180 -56 348 -131 211
-96 365 -156 587 -229 105 -35 192 -64 194 -66 5 -4 -99 -140 -267 -353 -261
-329 -538 -551 -688 -551 -43 0 -54 3 -54 16 0 9 35 66 79 128 166 235 421
696 421 761 0 46 -72 17 -185 -73 -38 -31 -161 -136 -272 -234 -226 -198 -342
-288 -437 -337 -57 -29 -365 -125 -374 -116 -8 8 25 51 133 171 64 71 125 145
135 164 19 38 97 150 282 405 110 153 187 275 173 275 -27 0 -138 -75 -405
-274 -269 -200 -446 -321 -530 -359 -85 -39 -184 -45 -330 -19 l-105 18 45 26
c25 14 95 54 155 88 141 80 250 154 367 246 113 91 269 243 309 303 31 48 38
88 15 97 -19 7 -103 -16 -339 -92 -600 -195 -697 -221 -801 -211 -56 6 -251
58 -284 76 -15 8 -21 6 643 291 687 295 950 391 1069 391 91 0 217 -42 536
-179 423 -182 950 -322 1315 -348 113 -8 234 16 390 76 61 23 133 51 162 62
56 22 97 19 107 -8 4 -9 11 -46 16 -81 14 -102 45 -120 99 -58 42 48 58 81
102 214 36 106 60 151 80 151 22 0 59 -126 74 -253 8 -72 -9 -104 -57 -109
-29 -3 -33 -7 -36 -34 -2 -18 4 -58 12 -90 8 -33 18 -86 22 -119 8 -74 31
-108 92 -139 86 -44 102 -76 188 -374 36 -125 92 -312 124 -417 151 -489 194
-668 208 -870 l8 -100 22 43 c13 23 27 40 32 37 6 -4 10 -34 10 -68 1 -79 16
-147 38 -163 14 -10 18 -37 22 -166 l5 -153 23 47 c39 81 53 204 32 277 -5 19
-22 52 -36 73 -22 31 -28 53 -32 112 -4 72 -3 75 24 103 28 27 29 32 27 108
-3 92 9 118 55 118 35 0 70 -25 107 -76 15 -21 29 -36 32 -34 2 3 0 31 -6 63
-24 129 -4 334 50 515 38 127 76 203 128 254 23 21 41 42 41 46 0 4 -16 3 -36
-3 -72 -20 -77 -3 -39 147 52 205 93 305 144 347 22 20 49 28 113 37 188 26
279 62 263 103 -4 10 -26 23 -49 29 -22 6 -49 18 -58 26 -38 34 -14 106 58
175 60 58 60 58 -86 123 -58 26 -109 51 -114 56 -12 10 16 143 51 251 30 91
78 154 109 144 30 -9 49 -51 79 -171 15 -60 48 -180 72 -265 40 -139 45 -167
46 -265 2 -185 -40 -302 -149 -416 -67 -68 -67 -69 -34 -63 l33 7 -7 -39 c-17
-103 -18 -161 -2 -223 24 -96 35 -102 63 -43 27 58 115 162 241 286 l91 89 98
-90 c267 -244 539 -463 576 -463 4 0 -4 17 -18 37 -29 44 -32 63 -7 63 39 0
187 -150 198 -200 10 -46 29 -72 101 -143 92 -90 118 -105 71 -41 -46 63 -60
92 -53 104 8 13 37 -2 91 -47 23 -18 44 -33 47 -33 4 0 -3 18 -14 40 -14 27
-19 50 -16 70 6 28 5 29 -20 19 -15 -5 -32 -8 -40 -5 -20 8 -16 44 7 56 29 16
84 -2 226 -71 137 -67 234 -144 234 -185 0 -30 3 -30 34 1 28 28 69 32 171 15
73 -12 102 -6 83 17 -7 9 -51 41 -98 73 -99 67 -158 127 -196 202 -30 59 -125
310 -120 315 7 8 179 -184 198 -221 l20 -39 -23 -49 c-17 -37 -20 -53 -12 -66
20 -33 75 -54 171 -68 53 -8 120 -21 147 -30 102 -31 193 -113 183 -162 -3
-13 -20 -1 -71 47 -37 35 -67 61 -67 57 0 -17 47 -97 96 -162 54 -74 83 -102
71 -70 -4 10 -10 35 -13 57 l-7 39 47 0 c33 0 48 5 52 15 4 9 -12 47 -35 87
-46 79 -47 84 -27 91 31 12 221 -14 266 -36 41 -20 50 -31 106 -140 33 -64 66
-123 72 -129 22 -22 13 37 -18 122 -16 45 -30 90 -30 101 0 24 78 76 127 85
51 10 105 -16 232 -111 63 -47 115 -84 116 -83 2 2 -37 70 -86 152 -49 82 -89
154 -89 159 0 13 272 2 442 -18 131 -15 216 -40 265 -78 15 -12 67 -56 114
-98 109 -97 137 -115 151 -101 7 7 7 20 -1 43 -25 71 -13 72 96 8 70 -40 104
-51 67 -21 -12 9 -64 52 -117 95 -144 117 -287 279 -352 399 -21 39 -24 51
-15 69 20 36 127 78 226 90 114 13 175 27 414 96 192 55 350 116 350 136 0 5
-15 7 -37 4 -148 -24 -176 -20 -153 22 15 30 -1 33 -88 20 -43 -7 -92 -9 -107
-5 -16 4 -48 28 -71 54 l-43 47 -21 -23 c-11 -12 -32 -22 -45 -22 -44 0 -105
31 -120 61 -16 30 -63 49 -125 49 -45 0 -30 14 40 35 34 11 96 18 165 20 132
3 210 21 590 140 336 104 442 135 467 135 17 0 19 -4 13 -32 -6 -26 -5 -30 10
-24 9 3 33 9 53 12 31 5 43 1 76 -25 33 -26 47 -31 95 -31 90 1 181 53 140 82
-8 5 -48 7 -91 3 -74 -5 -78 -4 -78 15 0 23 2 22 -100 24 l-75 1 -3 30 c-5 43
-15 49 -90 55 -60 4 -67 7 -66 26 0 19 -5 20 -90 21 -160 1 -484 82 -679 169
-124 56 -123 56 -427 159 -263 89 -436 159 -595 240 -124 63 -394 218 -395
226 0 4 62 33 137 65 253 108 321 150 283 174 -8 5 -25 10 -38 10 -21 0 -23
-3 -17 -29 6 -29 6 -30 -28 -24 -46 7 -127 -17 -275 -84 -154 -68 -206 -76
-275 -39 -26 14 -50 26 -53 26 -3 0 10 -22 30 -49 20 -27 36 -53 36 -57 0 -5
-37 -22 -83 -38 -45 -16 -156 -63 -247 -104 -640 -289 -824 -341 -1493 -423
l-268 -33 -213 106 c-300 151 -338 190 -387 393 -11 50 -25 94 -29 99 -5 5
-20 -15 -35 -43 -28 -55 -44 -61 -59 -19 -7 20 -2 40 22 93 39 83 40 95 5 95
-57 -1 -110 -54 -169 -172 -18 -36 -38 -69 -43 -72 -5 -4 -13 14 -17 39 -3 25
-11 48 -17 52 -30 18 -106 -110 -264 -443 -175 -368 -184 -378 -330 -372 -122
5 -119 1 -207 317 -35 126 -83 236 -119 277 -38 44 -74 45 -133 2 -24 -17 -47
-28 -51 -25 -9 9 -22 93 -22 148 -1 57 43 132 149 255 92 105 124 144 119 143
-2 0 -65 -54 -139 -120z m1270 -380 c0 -65 -12 -99 -35 -99 -30 0 -27 60 6
147 15 40 29 16 29 -48z m-1519 12 c-8 -14 -21 -21 -41 -21 -48 0 -48 20 0 53
21 14 26 15 38 3 11 -11 11 -18 3 -35z m4434 19 c18 -29 332 -177 645 -306
211 -85 324 -128 590 -221 405 -141 445 -155 482 -174 70 -36 59 -58 -41 -89
-97 -31 -247 -42 -385 -30 -223 19 -416 68 -869 218 -130 44 -239 77 -241 73
-2 -3 5 -29 15 -57 47 -124 435 -441 734 -599 120 -63 155 -89 155 -115 0 -28
-47 -41 -149 -41 -117 0 -174 16 -356 106 -201 98 -356 204 -594 404 -133 111
-238 184 -252 175 -37 -22 172 -331 498 -736 159 -199 202 -263 185 -280 -6
-6 -44 -13 -84 -16 -129 -8 -200 32 -503 285 -406 337 -593 483 -622 483 -14
0 -15 -12 -10 -87 9 -159 97 -322 371 -691 58 -79 106 -147 106 -152 0 -13
-54 -19 -91 -11 -128 29 -347 206 -615 496 -233 253 -331 347 -356 343 -22 -3
-23 -7 -22 -79 2 -105 59 -406 114 -594 33 -114 28 -121 -53 -86 -70 30 -115
76 -132 134 -16 53 -39 87 -61 87 -38 0 -123 104 -199 245 -27 49 -65 107 -84
128 -33 36 -38 39 -76 34 -83 -12 -92 -19 -99 -84 -8 -72 -25 -99 -73 -112
-49 -14 -110 1 -189 45 -35 20 -68 33 -74 29 -5 -3 -10 -23 -10 -43 0 -62 -11
-68 -61 -30 -50 39 -58 61 -32 90 29 34 127 93 199 122 37 15 371 103 743 196
930 233 1072 276 1079 326 5 33 29 50 133 94 115 49 210 105 269 158 87 77 26
68 -225 -35 -88 -36 -245 -100 -350 -143 -389 -158 -737 -257 -1115 -315 -334
-51 -415 -69 -584 -131 -194 -70 -218 -74 -290 -41 -32 15 -70 35 -85 47 -32
22 -33 12 10 172 l24 87 -24 24 c-30 33 -40 82 -41 201 0 75 3 97 13 93 116
-47 384 -165 423 -187 l50 -28 125 9 c502 37 780 114 1503 419 436 184 560
224 581 190z m1026 -936 c72 -36 26 -74 -67 -55 -91 18 -154 64 -102 74 36 8
140 -4 169 -19z m-9337 -6 c-27 -30 -134 -98 -154 -98 -29 0 -45 27 -32 55 8
17 22 26 49 30 21 4 58 13 83 20 68 20 76 19 54 -7z m2509 -17 c80 -16 155
-34 166 -40 19 -10 19 -14 7 -54 -50 -163 -229 -498 -315 -590 -79 -85 -171
-116 -162 -55 0 4 12 62 25 130 14 68 41 227 61 353 45 288 44 285 60 285 7 0
78 -13 158 -29z m3181 -100 c31 -34 0 -80 -45 -66 -27 9 -34 43 -13 66 9 10
22 19 29 19 7 0 20 -9 29 -19z m-1087 -68 c22 -55 15 -288 -11 -327 -16 -26
-19 -26 -35 -12 -13 12 -23 58 -41 181 -26 184 -24 195 37 195 30 0 36 -5 50
-37z m-5514 -288 c-4 -15 -86 -12 -91 3 -3 10 8 12 44 10 27 -2 48 -7 47 -13z
m8914 -94 c87 -70 178 -170 166 -182 -17 -17 -85 23 -140 85 -53 60 -100 136
-85 136 6 0 32 -18 59 -39z m-5318 -49 c12 -22 -6 -62 -46 -104 -34 -35 -43
-28 -32 23 19 85 56 123 78 81z m3866 -52 c6 -20 -22 -80 -37 -80 -12 0 -21
47 -14 75 8 30 42 34 51 5z m-4598 -128 c-12 -37 -26 -70 -32 -74 -14 -11 -87
-9 -105 2 -13 8 -13 13 0 37 16 30 136 116 150 108 5 -3 -2 -35 -13 -73z
m6410 -97 c91 -60 95 -115 9 -115 -62 0 -107 29 -130 83 -10 25 -16 53 -12 62
10 26 68 13 133 -30z m987 -119 c22 -24 52 -58 65 -76 22 -29 28 -31 63 -26
34 6 39 4 36 -10 -11 -58 -91 -31 -174 58 -50 55 -69 98 -43 98 7 0 30 -20 53
-44z m-7574 24 c12 -8 12 -10 -2 -15 -25 -10 -81 -1 -86 13 -4 14 65 17 88 2z"/>
<path d="M7705 3713 c-41 -8 -94 -36 -100 -52 -11 -29 31 -51 96 -51 66 0 106
14 114 42 17 52 -30 79 -110 61z"/>
<path d="M9464 4755 c-9 -22 14 -45 46 -45 29 0 66 32 55 49 -10 17 -95 14
-101 -4z"/>
<path d="M3234 4718 c-17 -4 -39 -17 -49 -28 -18 -20 -18 -20 13 -20 37 0 114
29 107 40 -8 13 -39 17 -71 8z"/>
<path d="M9617 4710 c-35 -28 -36 -60 -2 -60 29 0 79 44 72 63 -6 20 -42 19
-70 -3z"/>
<path d="M10300 4676 c-52 -14 -120 -52 -120 -68 0 -19 98 0 152 29 87 47 70
67 -32 39z"/>
<path d="M7 3634 c-14 -14 6 -24 49 -24 44 0 58 12 28 24 -21 8 -69 8 -77 0z"/>
<path d="M11850 3418 c-20 -7 -22 -11 -10 -18 20 -13 87 -13 95 0 3 6 5 10 3
10 -2 0 -17 4 -33 9 -17 5 -41 4 -55 -1z"/>
<path d="M1000 3330 c0 -11 102 -72 109 -65 9 10 -22 53 -46 64 -30 14 -63 14
-63 1z"/>
<path d="M11880 3285 c-15 -18 -9 -49 10 -52 24 -4 64 32 57 51 -8 20 -50 21
-67 1z"/>
<path d="M12007 3293 c-14 -14 -6 -53 14 -67 45 -31 67 13 26 52 -25 24 -30
26 -40 15z"/>
<path d="M12173 3203 c-7 -2 -13 -9 -13 -14 0 -12 137 -12 144 0 10 16 -98 28
-131 14z"/>
<path d="M11000 2824 c0 -12 200 -240 233 -266 19 -15 47 -30 63 -34 16 -4 60
-37 98 -73 72 -68 103 -70 46 -3 -68 79 -440 397 -440 376z"/>
<path d="M5330 2591 c0 -53 15 -69 26 -27 8 33 2 69 -13 74 -9 2 -13 -11 -13
-47z"/>
<path d="M5507 2597 c-6 -41 3 -98 14 -91 12 7 12 111 0 118 -5 3 -11 -9 -14
-27z"/>
<path d="M10065 2323 c11 -45 127 -205 139 -192 12 12 -120 219 -141 219 -3 0
-2 -12 2 -27z"/>
<path d="M993 2310 c-45 -20 -58 -50 -23 -50 43 0 101 45 83 64 -9 9 -13 8
-60 -14z"/>
<path d="M9677 2124 c-3 -3 1 -28 9 -56 9 -27 13 -53 10 -56 -3 -3 -17 0 -31
6 -38 18 -50 15 -31 -7 39 -43 126 -53 126 -13 0 18 -54 117 -68 126 -5 3 -12
3 -15 0z"/>
<path d="M4093 2053 c-30 -20 -29 -41 2 -49 31 -8 55 10 55 42 0 28 -23 31
-57 7z"/>
<path d="M6377 1753 c-10 -9 -8 -95 2 -111 7 -11 10 -10 15 3 15 40 1 127 -17
108z"/>
</g>
</svg>
